HIERARCHY
ROOT Hips
{
    OFFSET 0.000000 0.000000 0.000000
    CHANNELS 6 Xposition Yposition Zposition Zrotation Xrotation Yrotation
        JOINT Chest
        {
            OFFSET -0.000000 28.596201 -0.000000
            CHANNELS 3 Zrotation Xrotation Yrotation
            JOINT Neck
            {
                OFFSET -0.000000 20.833183 0.000000
                CHANNELS 3 Zrotation Xrotation Yrotation
                JOINT Head
                {
                    OFFSET -0.000000 10.327778 0.000000
                    CHANNELS 3 Zrotation Xrotation Yrotation
                    End Site
                    {
                        OFFSET -0.000000 15.961117 0.000000
                    }
                }
            }
            JOINT LeftCollar
            {
                OFFSET -0.000000 20.833183 0.000000
                CHANNELS 3 Zrotation Xrotation Yrotation
                JOINT LeftShoulder
                {
                    OFFSET 18.777777 -0.000000 0.000000
                    CHANNELS 3 Zrotation Xrotation Yrotation
                    JOINT LeftElbow
                    {
                        OFFSET 23.016544 0.000000 0.000000
                        CHANNELS 3 Zrotation Xrotation Yrotation
                        JOINT LeftWrist
                        {
                            OFFSET 24.619797 0.000000 0.000000
                            CHANNELS 3 Zrotation Xrotation Yrotation
                            End Site
                            {
                                OFFSET 0.000000 -14.083333 0.000000
                            }
                        }
                    }
                }
            }
            JOINT RightCollar
            {
                OFFSET -0.000000 20.833183 0.000000
                CHANNELS 3 Zrotation Xrotation Yrotation
                JOINT RightShoulder
                {
                    OFFSET -18.777777 0.000000 0.000000
                    CHANNELS 3 Zrotation Xrotation Yrotation
                    JOINT RightElbow
                    {
                        OFFSET -23.016544 0.000000 0.000000
                        CHANNELS 3 Zrotation Xrotation Yrotation
                        JOINT RightWrist
                        {
                            OFFSET -24.619797 0.000000 0.000000
                            CHANNELS 3 Zrotation Xrotation Yrotation
                            End Site
                            {
                                OFFSET -0.000000 -14.083333 0.000000
                            }
                        }
                    }
                }
            }
        }
    JOINT LeftHip
    {
        OFFSET 11.266668 0.000000 0.000000
        CHANNELS 3 Zrotation Xrotation Yrotation
        JOINT LeftKnee
        {
            OFFSET -0.000000 -40.535309 0.000000
            CHANNELS 3 Zrotation Xrotation Yrotation
            JOINT LeftAnkle
            {
                OFFSET -0.000000 -39.958225 0.000000
                CHANNELS 3 Zrotation Xrotation Yrotation
                End Site
                {
                    OFFSET -0.000000 -4.694444 15.961117
                }
            }
        }
    }
    JOINT RightHip
    {
        OFFSET -11.266668 0.000000 0.000000
        CHANNELS 3 Zrotation Xrotation Yrotation
        JOINT RightKnee
        {
            OFFSET -0.000000 -40.535309 0.000000
            CHANNELS 3 Zrotation Xrotation Yrotation
            JOINT RightAnkle
            {
                OFFSET -0.000000 -39.958225 0.000000
                CHANNELS 3 Zrotation Xrotation Yrotation
                End Site
                {
                    OFFSET -0.000000 -4.694444 15.961117
                }
            }
        }
    }
}
MOTION
Frames:    8
Frame Time:    0.010000
-39.039467    88.809708    -60.253479    1.771495    2.126575    -0.625785    0.915800    -5.176052    3.568486    -13.382306    11.511312    5.788506    -1.545351    -13.905221    4.550863    -17.508127    -4.594877    29.206024    20.444508    56.141651    -91.070419    13.021372    -8.733054    -67.777122    104.546715    57.842716    104.201782    20.700014    0.985443    5.544730    25.599878    45.327423    30.437227    12.827370    8.876789    69.487373    -123.581787    -3.334997    17.796789    -3.353627    5.425835    -12.216889    2.598589    5.179502    4.125779    3.870970    -10.948117    28.999981    -6.293265    -10.099937    0.128746    -9.285574    18.667318    12.845469    18.485188    -10.930258    -6.490509    
-39.294617    88.844902    -60.159760    1.973025    2.274159    -0.361232    0.675020    -5.146238    3.534223    -12.102298    11.478423    4.830122    -1.410286    -12.557528    3.409658    -17.443436    -4.416201    27.468092    19.369345    56.051109    -89.884773    12.181743    -7.819984    -68.046387    104.774437    55.908764    104.947571    20.851473    0.829215    3.626474    24.861620    44.537106    31.028591    12.796394    8.955317    69.898521    -123.030785    -3.059518    17.469894    -3.337354    5.389164    -13.606560    2.498873    5.049959    5.292341    0.978833    -11.901724    29.210180    -6.365810    -10.038280    0.377852    -9.042817    18.651838    12.486369    17.853207    -11.047359    -6.823166    
-39.544052    88.846832    -60.104729    2.074924    2.464535    -0.163408    0.731884    -5.381302    3.347532    -12.336072    11.574345    4.934062    -1.349259    -12.889778    3.530254    -17.486012    -4.383714    27.725370    21.876383    55.590614    -92.376289    12.585935    -8.546923    -67.714149    103.828850    56.393879    104.896118    20.853622    0.742948    3.667130    25.196165    44.634148    30.569931    12.895207    9.059053    69.859741    -124.458580    -3.106745    17.411335    -3.270162    5.036279    -13.069367    2.529827    5.316467    4.833520    2.056961    -11.500336    28.875874    -6.200920    -10.120653    0.272685    -9.187029    18.663359    12.576230    17.647188    -11.206963    -7.090137    
-39.736172    88.866592    -60.061203    2.174003    2.581747    0.005632    0.768553    -5.440963    3.274641    -12.438725    11.518404    5.022729    -1.297919    -12.974693    3.619621    -17.550106    -4.378636    27.802649    22.333488    55.297798    -92.831009    12.647093    -8.537948    -67.562866    103.301819    56.061157    105.491341    20.853756    0.698630    3.724846    25.215485    44.583889    30.363150    13.003604    9.160593    69.935242    -124.964043    -3.067637    17.339188    -3.226582    4.881061    -13.266341    2.509459    5.389812    4.982731    1.753176    -11.567170    28.793777    -6.134306    -10.129931    0.293015    -9.202586    18.662415    12.522817    17.342762    -11.308675    -7.314624    
-39.957066    88.890305    -60.012863    2.282368    2.699535    0.189843    0.808188    -5.480726    3.200789    -12.505684    11.449384    5.079186    -1.266071    -13.047168    3.678545    -17.603128    -4.374892    27.817095    22.876106    54.986790    -93.387299    12.708501    -8.521065    -67.347984    102.747375    55.583809    106.068390    20.850142    0.678570    3.719348    25.204741    44.485207    30.203331    13.090218    9.221886    70.016312    -125.505173    -3.024638    17.279095    -3.173353    4.717014    -13.429482    2.490368    5.477367    5.094138    1.492457    -11.612421    28.698936    -6.044139    -10.128798    0.311400    -9.242769    18.660480    12.482464    16.999817    -11.421190    -7.564386    
-40.202732    88.917717    -59.958817    2.398015    2.803705    0.380205    0.859658    -5.488226    3.132175    -12.579006    11.364532    5.139445    -1.241058    -13.124983    3.743024    -17.637451    -4.415321    27.826283    23.482292    54.675991    -94.050102    12.795024    -8.540487    -66.988586    102.180115    54.892193    106.597343    20.840708    0.677957    3.718186    25.175573    44.374588    30.072830    13.142617    9.248424    70.092628    -126.015442    -2.973527    17.229725    -3.112200    4.561163    -13.535002    2.476014    5.575285    5.150515    1.279847    -11.634949    28.592686    -5.930581    -10.106187    0.331036    -9.308690    18.657230    12.458703    16.627638    -11.540641    -7.831870    
-40.468342    88.948616    -59.898724    2.519202    2.883100    0.568883    0.923755    -5.452657    3.073406    -12.650190    11.270931    5.198653    -1.227915    -13.202017    3.805463    -17.697582    -4.424594    27.819744    24.093838    54.326645    -94.677727    12.807366    -8.445884    -66.659477    101.695854    54.063343    107.157066    20.828344    0.677154    3.717439    25.126810    44.272617    29.978323    13.098740    9.229402    70.167351    -126.371948    -2.901008    17.195883    -3.045371    4.427296    -13.566230    2.469732    5.679519    5.142592    1.110542    -11.636817    28.474739    -5.797295    -10.054498    0.354037    -9.396296    18.653225    12.452882    16.236952    -11.662963    -8.109348    
-40.748409    88.982460    -59.833191    2.644466    2.932012    0.750830    1.001547    -5.367944    3.026374    -12.710055    11.176646    5.251568    -1.239396    -13.282769    3.861011    -17.772394    -4.432300    27.790745    24.658363    53.945145    -95.281601    12.788224    -8.352970    -66.215569    101.311234    53.000290    107.575943    20.812611    0.695956    3.715057    25.066359    44.153576    29.918928    13.053828    9.188897    70.204041    -126.651085    -2.827563    17.153471    -2.975412    4.323090    -13.519236    2.473826    5.786318    5.071647    0.966889    -11.624014    28.344955    -5.651543    -9.971973    0.380062    -9.496401    18.650503    12.464359    15.837934    -11.784686    -8.390425    
